<?xml version="1.0" encoding="utf-8"?>
<!-- Generator: Adobe Illustrator 24.1.2, SVG Export Plug-In . SVG Version: 6.00 Build 0)  -->
<svg version="1.1" xmlns="http://www.w3.org/2000/svg" xmlns:xlink="http://www.w3.org/1999/xlink" x="0px" y="0px"
	 viewBox="0 0 500 500" style="enable-background:new 0 0 500 500;" xml:space="preserve">
<style type="text/css">
	.st0{fill:#EDBE5F;}
	.st1{fill:#6DBAB7;}
	.st2{fill:#D2607A;}
	.st3{fill:#EBB941;}
	.st4{fill:#D36476;}
	.st5{fill:#90BF4F;}
	.st6{fill:#CC5499;}
	.st7{fill:#F6E29E;}
	.st8{fill:#ADCD6D;}
	.st9{fill:#67B3E6;}
</style>
<g id="BACKGROUND">
</g>
<g id="OBJECTS">
	<g id="Nuevo_símbolo">
	</g>
	<g id="Nuevo_símbolo_1">
	</g>
	<g id="Nuevo_símbolo_2">
	</g>
	<g id="Nuevo_símbolo_3">
	</g>
	<g>
		<g>
			<path class="st0" d="M255.9042969,184.2456055c-0.0292969,0-0.0596008,0-0.088913-0.0034027
				c-0.5028992-0.0469055-0.8739929-0.4956055-0.8280945-1.0005035l7.5488129-80.421402
				c0.0479126-0.5048981,0.5048828-0.8744965,1-0.8280945c0.5039063,0.0468979,0.875,0.4945984,0.8300781,1l-7.5487976,80.421402
				C256.7714844,183.8905945,256.3721008,184.2456055,255.9042969,184.2456055z"/>
		</g>
		<g>
			<path class="st1" d="M422.4462891,91.1772003c-0.0888977,0-0.1826172-0.0136032-0.2715149-0.0410004l-64.3192749-20.0550995
				c-0.4815063-0.1509018-0.7539063-0.6656036-0.6026001-1.1499023c0.1523743-0.4830017,0.6659851-0.7535019,1.1493835-0.6035995
				l64.3164978,20.0547028c0.484314,0.1513977,0.7547913,0.665596,0.6044006,1.1499023
				C423.2001953,90.9247971,422.8378906,91.1772003,422.4462891,91.1772003z"/>
		</g>
		<g>
			<g>
				<polygon class="st2" points="442.2382813,177.969696 433.5712891,151.8833008 460.4979858,157.4136047 				"/>
			</g>
			<g>
				<polygon class="st0" points="441.445282,141.0415039 432.3534851,131.4208984 445.2294922,128.3535004 				"/>
			</g>
		</g>
		<g>
			<path class="st2" d="M267.7118835,90.2895966c1.0537109,1.0991058,1.0137024,2.8432007-0.0830078,3.8940048
				c-1.1005859,1.0513-2.8417969,1.0126953-3.8925781-0.0868988c-1.054718-1.0987015-1.0166016-2.842804,0.0820923-3.8931046
				C264.9169922,89.1528015,266.6630859,89.1909027,267.7118835,90.2895966z"/>
		</g>
		<g>
			<path class="st1" d="M275.6757813,82.6728973c1.0516968,1.100502,1.0126953,2.8432007-0.0868835,3.8950043
				c-1.0977173,1.0507965-2.842804,1.0126953-3.8955078-0.0874023c-1.0498047-1.097702-1.0108032-2.8432999,0.0888062-3.8930969
				C272.8798828,81.5365982,274.6229858,81.5742035,275.6757813,82.6728973z"/>
		</g>
		<g>
			<path class="st1" d="M266.2558899,183.5883942c-0.5126953,5.7021027,3.7254944,10.852005,9.4198914,11.4458008
				l60.0487976,6.2436066c5.6943054,0.5912933,6.7070007,4.0157013,2.2490234,7.6098938l-12.2528992,9.8827972
				c-4.4551086,3.593811-3.735321,4.8403015,1.601593,2.7695007l45.618103-17.6952972
				c5.3388977-2.0688019,14.3769836-4.0843964,20.0898743-4.4785004l26.2070007-1.8060913
				c5.7129211-0.3926086,10.0703125-5.3881989,9.6875-11.1011047l-4.7255859-79.594696
				c-0.3847046-5.7120056-5.1679077-11.7906036-10.6299133-13.5074005l-50.2157898-15.7890015
				c-5.4628906-1.7168045-14.5176086-2.1626053-20.1200867-0.9888l-59.3320007,12.4253006
				c-5.6016235,1.1732941-10.6065063,6.7993011-11.1192017,12.5014954L266.2558899,183.5883942z"/>
		</g>
	</g>
	<g>
		<g>
			<g>
				<path class="st3" d="M415.9188843,404.3183899c-2.7900085,5.0742188-9.8963928,7.6328125-15.9580078,5.8769226
					c-1.1542969-0.3340149-1.7381897-0.5010071-2.8973999-0.8252258
					c-6.0829773-1.7020874-15.9159851-1.2489929-21.5995789,0.9756165
					c-5.9287109,2.3222961-14.2686157,6.0253906-19.9414063,8.6044922
					c-5.4394836,2.4736023-3.4034119-2.4325867-2.2666016-8.0498047c0.0166016-0.0800781,0.0223999-0.1230774,0.0400085-0.202179
					c1.1366882-5.618103-3.0391235-10.9941101-9.3828125-11.7167969
					c-17.6513977-2.0097046-35.4530945-2.6494141-53.2060852-1.9130249
					c-6.4716187,0.2685242-13.0254211-3.8505859-14.5957031-9.3935852
					c-6.5302124-23.0477905-17.9121094-59.217804-25.551712-81.9227905
					c-1.8457031-5.4844055,3.5322113-14.1846008,11.7881012-15.5420227
					c64.5986023-8.842804,125.532196-5.7988892,188.9638062,9.2744141
					c8.1962891,2.1854858,11.7431946,10.9667969,8.2861938,15.7528992
					C442.0937805,339.4979858,430.3417969,378.1073914,415.9188843,404.3183899z"/>
			</g>
		</g>
		<g>
			<g>
				<path class="st3" d="M271.7099915,282.4453125c-0.4277954-0.0332031-0.7881165-0.3594055-0.8409119-0.8037109
					c-0.0614929-0.5020142,0.2969055-0.9599915,0.8027954-1.0215149
					c42.9482117-5.2059937,83.8437195-5.2089844,125.0283203-0.0166016c0.5018921,0.0645142,0.8612976,0.522522,0.7977905,1.0244141
					c-0.063385,0.5039063-0.4443054,0.8770142-1.0252991,0.7969055
					c-41.031311-5.1748047-81.7851868-5.1689148-124.5820923,0.0195007
					C271.8300781,282.4501953,271.7685852,282.4491882,271.7099915,282.4453125z"/>
			</g>
		</g>
		<g>
			<path class="st4" d="M271.5106812,396.5780945c-0.3623047-0.0263062-0.6893921-0.2684937-0.8065796-0.6376953
				l-28.6377106-90.3066101c-0.1533051-0.4804993,0.1143036-0.9980774,0.5986023-1.1513977
				c0.4756012-0.1513062,0.9980927,0.1143188,1.1513977,0.5986938l28.6377106,90.3046265
				c0.1532898,0.4824829-0.1152039,0.9980774-0.5996094,1.1523743
				C271.7402039,396.5762024,271.6239929,396.585907,271.5106812,396.5780945z"/>
		</g>
		<g>
			<g>
				<polygon class="st4" points="426.1933899,402.0770874 438.3456726,377.4208984 453.6298828,400.2676086 				"/>
			</g>
			<g>
				<polygon class="st5" points="451.5653992,375.2333984 451.8505859,361.9979858 463.1737976,368.8594055 				"/>
			</g>
		</g>
		<g>
			<path class="st5" d="M410.5810852,282.7792969c-0.1895142,1.5068054-1.5683899,2.5751953-3.0800781,2.3808899
				c-1.5078125-0.1865845-2.5752258-1.5644836-2.3838196-3.0722961c0.1903992-1.514679,1.5693054-2.5839844,3.0791016-2.3916016
				C409.704071,279.8857117,410.7753906,281.2676086,410.5810852,282.7792969z"/>
		</g>
		<g>
			<path class="st4" d="M421.5126953,284.1611023c-0.1895142,1.506897-1.5732117,2.5791016-3.0820007,2.3868103
				c-1.506897-0.1914978-2.5772095-1.5713196-2.3876953-3.0811157c0.1923828-1.5087891,1.5751953-2.5772095,3.0791016-2.3887024
				C420.6317749,281.2715149,421.7050781,282.648407,421.5126953,284.1611023z"/>
		</g>
	</g>
	<g>
		<g>
			<path class="st6" d="M203.0736389,186.0944366c-1.1846008,5.726593-6.9268036,10.0650024-12.7606964,9.6401978
				l-2.780304-0.2017059c-5.8359985-0.4247894-14.6748047,3.1494141-19.6445923,6.2334137l-12.9580078,8.0424957
				c-4.9707031,3.0848999-8.4980011,0.8529968-7.839798-4.9589996l0.0225067-0.2105103
				c0.6590881-5.8114929-3.5762024-12.3153992-9.4092102-12.7430878l-48.3593979-3.5274048
				c-5.8349991-0.4277039-11.0712967-5.539505-11.6386948-11.3607941l-8.1562042-81.6816025
				c-0.5673981-5.8218002,3.7480011-10.7789001,9.592804-11.0181046l132.5770874-5.3891983
				c5.8447113-0.2368011,9.6572113,4.2554016,8.4707031,9.9829025L203.0736389,186.0944366z"/>
		</g>
		<g>
			<path class="st6" d="M209.6429443,190.2639313c-0.0625,0.0034027-0.1289063-0.0009918-0.1943054-0.0108032
				c-0.5106964-0.0765991-0.8632965-0.5580902-0.7841949-1.0678864l13.2626953-86.182106
				c0.0762024-0.5131989,0.5518036-0.8647003,1.0703125-0.7855988c0.5097809,0.0781021,0.8613892,0.5580978,0.7822876,1.0688019
				l-13.261795,86.1820908C210.450531,189.915741,210.0765381,190.2409363,209.6429443,190.2639313z"/>
		</g>
		<g>
			<path class="st7" d="M83.7787399,77.9670334c-0.4951019,0-0.9091949-0.3852997-0.9365005-0.8857956
				c-0.0283966-0.5171051,0.3671036-0.959404,0.8847046-0.988205l102.1806946-5.6269989
				c0.5381012-0.0093002,0.9598999,0.3686981,0.9862976,0.8838043c0.030304,0.5170975-0.3681946,0.9599991-0.8847961,0.9872971
				L83.8304443,77.965538C83.8138428,77.9665375,83.7953415,77.9670334,83.7787399,77.9670334z"/>
		</g>
		<g>
			<g>
				<polygon class="st8" points="59.4359436,130.7136383 66.7005386,157.842041 39.5746422,150.5764313 				"/>
			</g>
			<g>
				<polygon class="st1" points="58.0101433,168.4240417 66.699646,178.7897339 53.3822441,181.1379395 				"/>
			</g>
		</g>
		<g>
			<path class="st1" d="M199.2054443,69.7336349c0,1.5551987-1.2607117,2.8143997-2.8134003,2.8143997
				c-1.5538025,0-2.8144989-1.259201-2.8144989-2.8143997c0-1.5537033,1.2606964-2.8134995,2.8144989-2.8134995
				C197.9447327,66.920639,199.2054443,68.1799316,199.2054443,69.7336349z"/>
		</g>
		<g>
			<path class="st8" d="M210.4613342,69.7336349c0,1.5551987-1.2608032,2.8143997-2.8144989,2.8143997
				c-1.5527039,0-2.813385-1.259201-2.813385-2.8143997c0-1.5537033,1.2606812-2.8129959,2.813385-2.8129959
				C209.200531,66.920639,210.4613342,68.1799316,210.4613342,69.7336349z"/>
		</g>
	</g>
	<g>
		<g>
			<g>
				<polygon class="st8" points="48.5233955,356.3417969 66.777298,380.0107117 37.1562958,383.9883118 				"/>
			</g>
			<g>
				<polygon class="st3" points="62.577095,393.9648132 75.3603973,400.5840149 63.2421951,408.3467102 				"/>
			</g>
		</g>
		<g>
			<path class="st3" d="M210.4394836,369.3378906c1.551712,0.5693054,2.3525238,2.2900085,1.7851105,3.8398132
				c-0.5644073,1.5567017-2.2861023,2.3565063-3.8379059,1.789093c-1.5565948-0.5683899-2.3553925-2.2880859-1.7881012-3.8407898
				C207.164093,369.5712891,208.8837891,368.7724915,210.4394836,369.3378906z"/>
		</g>
		<g>
			<path class="st8" d="M214.5429993,358.085907c1.5536957,0.5654907,2.3563843,2.2870789,1.7880859,3.8399048
				c-0.5664978,1.5507813-2.2861938,2.3544922-3.8398895,1.7880859c-1.5566101-0.5673828-2.3545074-2.2871094-1.7881012-3.8388977
				C211.2694855,358.3203125,212.9882965,357.5176086,214.5429993,358.085907z"/>
		</g>
		<g>
			<path class="st9" d="M192.3388977,406.6796875c-2.4951019-6.0937805-1.5127106-15.5448914,2.1796875-20.9942017
				c0,0,13.5908051-20.0663757,13.5908051-39.257782c0-38.4951172-31.2061005-69.7021179-69.7021942-69.7021179
				c-38.4941025,0-69.7021027,31.2070007-69.7021027,69.7021179c0,38.4971008,31.2080002,69.7012024,69.7021027,69.7012024
				c7.4833984,0,9.8028107-0.5596008,9.8028107-0.5596008c6.4012909-1.5477905,16.8036804-1.2812195,23.1170807,0.5947876
				l16.8554993,5.0068054c6.3135071,1.8730164,9.4365082-1.5801086,6.9452972-7.6737976L192.3388977,406.6796875z"/>
		</g>
		<g>
			<path class="st8" d="M217.2401886,348.1914063l-1.9921875-0.0986023
				c1.0234833-20.4844055-5.9921112-40.1407166-19.7539063-55.351593
				c-13.7586975-15.2090149-32.6170959-24.1473999-53.1015015-25.1708984
				c-21.5507965-1.0791016-42.7089996,7.0439758-58.0224991,22.2870789l-1.4082031-1.414978
				c15.7089996-15.6397095,37.4141083-23.9815063,59.5322037-22.8662109
				c21.0146942,1.0477905,40.3632965,10.2225952,54.4824982,25.8270874
				C211.094696,307.0087891,218.2910004,327.1767883,217.2401886,348.1914063z"/>
		</g>
	</g>
</g>
<g id="DESIGNED_BY_FREEPIK">
</g>
</svg>
